<?xml version="1.0" encoding="UTF-8" standalone="no"?>
<!-- Generator: Adobe Illustrator 16.0.0, SVG Export Plug-In . SVG Version: 6.00 Build 0)  -->

<svg
   xmlns:dc="http://purl.org/dc/elements/1.1/"
   xmlns:cc="http://creativecommons.org/ns#"
   xmlns:rdf="http://www.w3.org/1999/02/22-rdf-syntax-ns#"
   xmlns:svg="http://www.w3.org/2000/svg"
   xmlns="http://www.w3.org/2000/svg"
   xmlns:sodipodi="http://sodipodi.sourceforge.net/DTD/sodipodi-0.dtd"
   xmlns:inkscape="http://www.inkscape.org/namespaces/inkscape"
   version="1.1"
   id="Layer_1"
   x="0px"
   y="0px"
   width="255.117px"
   height="147.402px"
   viewBox="0 0 255.117 147.402"
   enable-background="new 0 0 255.117 147.402"
   xml:space="preserve"
   inkscape:version="0.48.5 r10040"
   sodipodi:docname="Visiting Card__ (15)_Surf.svg"><metadata
   id="metadata71"><rdf:RDF><cc:Work
       rdf:about=""><dc:format>image/svg+xml</dc:format><dc:type
         rdf:resource="http://purl.org/dc/dcmitype/StillImage" /></cc:Work></rdf:RDF></metadata><defs
   id="defs69">
	

	

	

	

	
</defs><sodipodi:namedview
   pagecolor="#ffffff"
   bordercolor="#666666"
   borderopacity="1"
   objecttolerance="10"
   gridtolerance="10"
   guidetolerance="10"
   inkscape:pageopacity="0"
   inkscape:pageshadow="2"
   inkscape:window-width="1366"
   inkscape:window-height="716"
   id="namedview67"
   showgrid="false"
   inkscape:zoom="2.2421085"
   inkscape:cx="14.999275"
   inkscape:cy="69.386611"
   inkscape:window-x="-8"
   inkscape:window-y="-8"
   inkscape:window-maximized="1"
   inkscape:current-layer="Layer_1"
   showguides="true"
   inkscape:guide-bbox="true"><sodipodi:guide
     orientation="1,0"
     position="-41.032805,9.8121924"
     id="guide4292" /></sodipodi:namedview>
<g
   id="logo"
   inkscape:label="#g3">
	<g
   id="g5">
		<rect
   x="6.964"
   y="14.91"
   width="102.047"
   height="70.865"
   id="rect7"
   fill="#FFFFFF" />
		<text
   transform="matrix(1 0 0 1 36.9214 76.5483)"
   font-size="8.0618"
   id="text9"
   font-family="'Arial'"
   fill="#00B5B5">tagline here</text>


		<text
   transform="matrix(1 0 0 1 22.5542 65.8848)"
   font-size="10.3652"
   id="text11"
   font-family="'Arial'"
   fill="#1E2126">company name</text>


	</g>
	<path
   d="M68.938,49.866c-2.848,2.684-6.696,4.365-10.926,4.365c-6.046,0-11.306-3.416-13.989-8.376   C53.375,44.798,61.725,55.233,68.938,49.866L68.938,49.866z"
   id="path13"
   fill="#55C7E1" />
	<path
   d="M58.012,22.52c-8.757,0-15.86,7.101-15.86,15.855c0,2.439,0.542,4.716,1.519,6.775   c1.118-1.2,2.233-2.011,3.345-2.552c0.886-1.421,2.334-2.442,4.057-2.751c-0.516-0.486-0.841-1.192-0.841-1.978   c0-1.49,1.193-2.711,2.711-2.711c1.491,0,2.711,1.221,2.711,2.711c0,1.356-1.003,2.494-2.305,2.684   c0.136,0.027,0.272,0.027,0.407,0.027c1.437,0,2.603-1.11,2.71-2.52c1.519-1.031,2.819-2.143,5.993-2.143   c1.002,0,1.979,0.164,2.901,0.434c-0.353-0.081-0.732-0.136-1.139-0.136c-3.443,0-6.886,3.415-1.953,6.314   c3.226,1.877,7.294,1.78,10.437-0.236c0.281-0.332,0.561-0.686,0.841-1.075C75.065,31.355,68.232,22.52,58.012,22.52z"
   id="path15"
   fill="#F9C506" />
	<path
   d="M43.642,45.205c10.277-11.167,20.334,9.323,29.904-3.985C66.281,58.594,55.138,42.576,43.642,45.205   L43.642,45.205z"
   id="path17"
   fill="#55C7E1" />
</g>
<g
   id="color2"
   inkscape:label="#g19">
	<path
   clip-rule="evenodd"
   d="M255.117,41.557v-1.079c-1.692-3.639-3.216-7.372-4.562-11.213   c1.619,2.645,3.144,5.31,4.562,7.997v-4.699c-0.666-1.883-1.291-3.788-1.869-5.718c0.644,1.163,1.262,2.331,1.869,3.501V20.66   c-5.583,6.132-11.221,12.255-16.834,18.386l16.834-19.752v-1.8c-2.893,2.35-5.829,4.384-8.827,6.105   c0.674,0.066,1.347,0.134,2.021,0.207c-0.87,0.047-1.737,0.088-2.605,0.126c-1.394,0.78-2.803,1.494-4.226,2.145   c1.647,0.194,3.294,0.409,4.941,0.641c-2.169,0.048-4.324,0.056-6.47,0.032c-1.343,0.564-2.701,1.077-4.072,1.533   c2.853,0.384,5.708,0.834,8.571,1.339c-3.84-0.048-7.632-0.212-11.382-0.483c-1.132,0.313-2.278,0.588-3.435,0.833   c4.309,0.628,8.62,1.413,12.932,2.328c-4.953-0.229-9.825-0.648-14.615-1.25c-0.175,0.359-0.345,0.72-0.507,1.086   c4.411,0.789,8.814,1.746,13.217,2.842c-4.658-0.376-9.235-0.917-13.735-1.62c-0.155,0.389-0.306,0.779-0.451,1.177   c4.095,0.902,8.184,1.945,12.262,3.114c-4.3-0.496-8.531-1.13-12.679-1.903c-0.141,0.426-0.274,0.856-0.402,1.294   c3.725,0.979,7.435,2.078,11.133,3.279c-3.884-0.585-7.705-1.28-11.458-2.09c-0.122,0.475-0.238,0.955-0.342,1.443   c3.293,1.013,6.571,2.121,9.836,3.311c-3.413-0.635-6.77-1.357-10.076-2.163c-0.104,0.537-0.197,1.082-0.282,1.636   c2.802,0.996,5.592,2.06,8.37,3.187c-2.884-0.641-5.726-1.345-8.524-2.107c-0.082,0.618-0.153,1.248-0.211,1.886   c2.255,0.912,4.496,1.872,6.729,2.874c-2.299-0.598-4.569-1.231-6.813-1.906c-0.052,0.728-0.093,1.464-0.12,2.213   c1.634,0.75,3.011,1.352,4.631,2.147l-4.657-0.562l1.402,5.263l6.409-0.272c0.119,0.09-2.373-3.924-2.255-3.833   c1.377,1.059,2.527,2.036,3.89,3.143c0.778-0.27,1.545-0.545,2.294-0.832c-1.538-1.688-3.037-3.418-4.496-5.187   c1.902,1.567,3.76,3.155,5.563,4.772c0.656-0.262,1.305-0.532,1.942-0.808c-1.773-2.077-3.489-4.208-5.142-6.398   c2.166,1.932,4.26,3.894,6.283,5.888c0.568-0.259,1.127-0.523,1.673-0.793c-1.939-2.432-3.803-4.935-5.582-7.512   c2.348,2.268,4.606,4.571,6.759,6.917c0.5-0.257,0.987-0.521,1.469-0.786c-2.051-2.76-3.998-5.605-5.839-8.539   c2.457,2.579,4.805,5.197,7.027,7.861c0.439-0.259,0.872-0.521,1.298-0.787c-2.104-3.055-4.08-6.208-5.926-9.462   c2.506,2.857,4.883,5.754,7.111,8.704c0.393-0.262,0.783-0.529,1.165-0.797c-2.104-3.32-4.059-6.745-5.865-10.28   c2.498,3.099,4.85,6.243,7.031,9.436c0.357-0.266,0.711-0.535,1.06-0.809c-2.06-3.548-3.952-7.209-5.67-10.985   c2.438,3.307,4.724,6.655,6.814,10.053c0.327-0.274,0.649-0.55,0.964-0.833c-1.97-3.736-3.753-7.59-5.349-11.564   c2.337,3.471,4.506,6.981,6.475,10.536C254.629,42.043,254.872,41.8,255.117,41.557z"
   id="path21"
   fill-rule="evenodd"
   fill="#29B473" />
	<path
   clip-rule="evenodd"
   d="M255.117,0h-7.736c0.423,0.175,0.851,0.342,1.273,0.521   c-0.687-0.165-1.356-0.35-2.037-0.521h-8.291c1.928,0.887,3.845,1.799,5.745,2.753c-2.789-0.853-5.5-1.785-8.179-2.753h-4.806   c3.63,1.834,7.201,3.791,10.721,5.865c-4.766-1.798-9.355-3.756-13.779-5.865h-1.801c-0.206,0.07-0.415,0.134-0.62,0.207   c4.224,2.262,8.354,4.707,12.404,7.308c-4.906-2.051-9.618-4.27-14.132-6.658c-0.495,0.197-0.982,0.4-1.471,0.614   c4.16,2.424,8.213,5.034,12.182,7.801c-4.778-2.204-9.354-4.567-13.729-7.088c-0.466,0.226-0.93,0.458-1.389,0.701   c3.978,2.53,7.846,5.241,11.627,8.099c-4.54-2.298-8.885-4.74-13.033-7.33c-0.371,0.211-0.739,0.427-1.106,0.652   c3.724,2.588,7.34,5.341,10.861,8.23c-4.235-2.345-8.285-4.816-12.153-7.417c-0.369,0.243-0.737,0.486-1.104,0.739   c3.421,2.603,6.736,5.35,9.963,8.218c-3.887-2.345-7.604-4.797-11.155-7.361c-0.369,0.276-0.739,0.557-1.108,0.846   c3.077,2.562,6.056,5.252,8.953,8.044c-3.498-2.294-6.849-4.68-10.049-7.158c-0.379,0.316-0.76,0.64-1.134,0.972   c2.701,2.47,5.317,5.045,7.858,7.703c-3.08-2.194-6.032-4.456-8.86-6.792c-0.393,0.365-0.784,0.739-1.174,1.123   c2.3,2.315,4.526,4.712,6.693,7.173c-2.632-2.033-5.162-4.121-7.596-6.259c-0.411,0.429-0.822,0.87-1.232,1.321   c1.877,2.09,3.699,4.235,5.473,6.431c-2.161-1.813-4.247-3.661-6.26-5.543c-0.444,0.511-0.882,1.036-1.322,1.574   c1.443,1.78,2.845,3.594,4.213,5.444c-1.672-1.519-3.295-3.06-4.868-4.623c-0.485,0.617-0.965,1.252-1.44,1.902   c0.989,1.368,1.848,2.491,2.797,3.894l-3.775-2.504l-1.93,5.252l5.825,2.525c0.05,0.133,0.266-4.487,0.317-4.357   c0.576,1.53,1.007,2.888,1.543,4.454c0.852,0.1,1.693,0.184,2.526,0.258c-0.34-2.155-0.625-4.331-0.847-6.522   c0.737,2.205,1.421,4.41,2.04,6.615c0.738,0.053,1.472,0.093,2.2,0.125c-0.316-2.602-0.547-5.221-0.689-7.869   c0.75,2.64,1.42,5.277,2.003,7.912c0.658,0.017,1.31,0.022,1.957,0.022c-0.25-2.987-0.385-6-0.406-9.045   c0.708,3.017,1.315,6.026,1.804,9.028c0.597-0.013,1.184-0.033,1.771-0.062c-0.15-3.321-0.158-6.675-0.019-10.057   c0.621,3.334,1.119,6.661,1.472,9.972c0.548-0.038,1.087-0.084,1.624-0.134c-0.016-3.607,0.136-7.243,0.463-10.916   c0.494,3.605,0.85,7.188,1.041,10.756c0.506-0.06,1.009-0.126,1.509-0.199c0.139-3.841,0.475-7.71,1.008-11.611   c0.341,3.815,0.526,7.606,0.529,11.37c0.477-0.079,0.95-0.165,1.421-0.256c0.318-4.024,0.853-8.074,1.608-12.153   c0.165,3.975,0.165,7.917-0.035,11.823c0.454-0.103,0.904-0.208,1.354-0.318c0.512-4.151,1.255-8.327,2.238-12.523   c-0.023,4.072-0.224,8.109-0.625,12.097c0.535-0.148,1.063-0.304,1.592-0.47c0.713-4.208,1.667-8.434,2.871-12.674   c-0.22,4.088-0.609,8.134-1.211,12.13c0.533-0.184,1.061-0.374,1.583-0.573c0.908-4.166,2.063-8.344,3.461-12.532   c-0.407,3.998-0.974,7.951-1.739,11.85c0.566-0.237,1.126-0.481,1.68-0.733c1.105-4.131,2.453-8.261,4.047-12.398   c-0.584,3.897-1.321,7.745-2.241,11.535c0.794-0.396,1.577-0.811,2.35-1.243c1.215-3.218,2.594-6.429,4.136-9.631   c-0.69,2.903-1.475,5.771-2.365,8.601c1.061-0.643,2.103-1.324,3.125-2.033c1.306-2.664,2.727-5.313,4.266-7.951   c-0.728,2.21-1.505,4.396-2.344,6.558c1.246-0.942,2.465-1.938,3.66-2.988V4.649c-11.444,3.983-22.765,7.715-35.138,11.995   l35.138-13.361V0z"
   id="path23"
   fill-rule="evenodd"
   fill="#29B473" />
</g>
<g
   id="color1"
   inkscape:label="#g25">
	<g
   id="g27">
		<path
   d="M1.233,124.657c0,0.001,0,0.002,0,0.002c-0.094-0.072-0.183-0.141-0.266-0.205    c0.002,0.001,0.006,0,0.008,0.001c-0.148-0.115-0.37-0.283-0.566-0.432c-0.001-0.001-0.011-0.009-0.011-0.009H0.397    c-0.084-0.064-0.165-0.125-0.23-0.175c-0.095-0.071-0.16-0.12-0.172-0.129c-0.001-0.001-0.002-0.002-0.002-0.002v0.183v0.604    v1.013v1.509c0,0,0,3.609,0,5.185v2.203c13.356,6.271,26.515,9.263,39.554,9.685C26.972,141,14.229,134.772,1.233,124.657z"
   id="path29"
   fill="#55C7E1" />
		<path
   d="M255.117,147.402V120.3v-1.061v-0.963v-1.444v-0.442v-0.571v-1.206c-0.029-0.021-0.069-0.042-0.107-0.063    v-0.013c-0.032-0.016-0.091-0.035-0.13-0.052c-0.129-0.058-0.311-0.123-0.311-0.123c-0.166-0.059-0.356-0.12-0.568-0.185    c0.01-0.002,0.012-0.011,0.021-0.013c-0.247-0.07-0.497-0.131-0.745-0.2c-0.484-0.137-1.015-0.277-1.55-0.414    c-0.361-0.095-1.105-0.284-1.113-0.279c-0.639-0.156-1.216-0.293-1.65-0.395c0.001-0.001,0-0.003,0-0.004    c-0.066-0.016-0.133-0.027-0.199-0.043c-0.352-0.082-0.568-0.131-0.568-0.131l-0.004,0.008    c-47.835-10.633-97.82,14.361-150.404,34.694H255.117z"
   id="path31"
   fill="#55C7E1" />
		<g
   id="g33">
			<path
   d="M-0.007,147.402h30.679c-10.335-0.529-20.559-2.823-30.679-7.502V147.402z"
   id="path35"
   fill="#55C7E1" />
			<path
   d="M40.543,147.402h34.798c63.978-20.123,125.602-52.267,179.776-37.308c0-0.125,0-0.391,0-0.585V92.776     C177.132,76.282,106.509,143.952,40.543,147.402z"
   id="path37"
   fill="#55C7E1" />
		</g>
	</g>
	<g
   id="g39">
		<rect
   x="115.857"
   y="13.458"
   width="1"
   height="71.443"
   id="rect41"
   fill="#55C7E1" />
	</g>
</g>
<text
   transform="scale(1.00015,0.99985003)"
   font-size="10"
   id="name"
   inkscape:label="#text43"
   x="123.46998"
   y="32.085411"
   style="font-size:10.00150013px;font-family:Arial">Your Name</text>


<text
   style="font-size:8.00119972px;font-family:Arial"
   id="designation"
   font-size="8"
   transform="scale(1.00015,0.99985003)"
   x="122.882"
   y="41.010052"
   inkscape:label="#text47">Designation</text>


<text
   style="font-size:7.00105px;font-family:Arial"
   id="email"
   font-size="7"
   transform="scale(1.00015,0.99985003)"
   x="122.94549"
   y="67.232285"
   inkscape:label="#text51">Email Id</text>


<text
   style="font-size:7.00105px;font-family:Arial"
   id="mobile"
   font-size="7"
   transform="scale(1.00015,0.99985003)"
   x="122.97968"
   y="58.164524"
   inkscape:label="#text55">Mob</text>


<text
   style="font-size:7.00105px;font-family:Arial"
   id="address1"
   font-size="7"
   transform="scale(1.00015,0.99985003)"
   x="15.371226"
   y="100.52927"
   inkscape:label="#text59">Address Line 1</text>


<text
   style="font-size:7.00105px;font-family:Arial"
   id="address2"
   font-size="7"
   transform="scale(1.00015,0.99985003)"
   x="15.371226"
   y="110.21723"
   inkscape:label="#text63">Address Line 2</text>


<text
   transform="matrix(1.0003 0 0 1 15.2778 120.1128)"
   font-size="7"
   id="website"
   inkscape:label="#text65"
   font-family="'Arial'">Website</text>


</svg>