<?xml version="1.0" encoding="UTF-8" standalone="no"?>
<svg
   xmlns:dc="http://purl.org/dc/elements/1.1/"
   xmlns:cc="http://creativecommons.org/ns#"
   xmlns:rdf="http://www.w3.org/1999/02/22-rdf-syntax-ns#"
   xmlns:svg="http://www.w3.org/2000/svg"
   xmlns="http://www.w3.org/2000/svg"
   xml:space="preserve"
   enable-background="new 0 0 354.33 246.61"
   viewBox="0 0 354.33 246.61"
   height="246.61px"
   width="354.33px"
   y="0px"
   x="0px"
   id="Layer_1"
   version="1.1"><metadata
   id="metadata6777"><rdf:RDF><cc:Work
       rdf:about=""><dc:format>image/svg+xml</dc:format><dc:type
         rdf:resource="http://purl.org/dc/dcmitype/StillImage" /><dc:title></dc:title></cc:Work></rdf:RDF></metadata><defs
   id="defs6775" />
<linearGradient
   gradientTransform="matrix(2.7849557,0,0,2.7849557,-279.75858,-238.71267)"
   y2="122.6326"
   x2="176.3297"
   y1="111.2012"
   x1="169.2139"
   gradientUnits="userSpaceOnUse"
   id="SVGID_1_">
	<stop
   id="stop6765"
   style="stop-color:#8DC63F"
   offset="0" />
	<stop
   id="stop6767"
   style="stop-color:#8DC63F"
   offset="1" />
</linearGradient>
<g
   transform="translate(1.8648947,-6.8379473)"
   id="g9">
<path
   style="fill:url(#SVGID_1_)"
   id="Color2"
   d="M 229.81868,65.869583 C 225.29313,50.271046 215.37869,37.70254 202.69042,29.58718 c -0.17545,-0.114184 -0.35647,-0.222797 -0.54028,-0.339765 -0.18937,-0.119753 -0.38711,-0.245075 -0.58205,-0.362044 -2.99661,-1.846426 -6.17425,-3.419926 -9.46885,-4.759489 l 9.4215,13.462476 -14.95799,5.260781 c 1.65983,0.754723 3.28625,1.5735 4.84025,2.520385 12.89713,7.920414 21.49986,22.151537 21.49986,38.38783 0,10.30155 -3.46727,19.801036 -9.29897,27.384466 l 0.0975,0.0668 c -4.39187,5.73701 -10.18179,10.44916 -17.06342,13.57387 l 2.21682,0.77701 12.76903,4.49213 -7.76446,11.08692 -1.61249,2.30593 c 30.20006,-12.24266 46.84574,-45.603642 37.57184,-77.574935 z" />
<path
   style="fill:#1c75bc"
   id="Color1"
   d="m 201.621,130.05167 -12.76902,-4.49213 -2.21683,-0.77701 -0.0222,-0.008 -10.53549,-3.71234 2.09429,6.52794 c -3.30574,0.76586 -6.75073,1.18082 -10.29041,1.18082 -1.16133,0 -2.31152,-0.0557 -3.44777,-0.13925 -0.38154,-0.0307 -0.75194,-0.078 -1.12513,-0.11696 -0.75472,-0.078 -1.51223,-0.16432 -2.2586,-0.2785 -0.43445,-0.0641 -0.87169,-0.14761 -1.30057,-0.22558 -0.67674,-0.12533 -1.34792,-0.26179 -2.01352,-0.41218 -0.4456,-0.10304 -0.88841,-0.20887 -1.33121,-0.32584 -0.6489,-0.17266 -1.29222,-0.36205 -1.92719,-0.55977 -0.42331,-0.1309 -0.85219,-0.259 -1.27273,-0.40661 -0.67674,-0.23393 -1.34235,-0.49572 -2.00795,-0.75751 -0.35648,-0.14481 -0.71852,-0.27292 -1.06942,-0.42052 -0.97195,-0.41774 -1.92163,-0.86613 -2.85737,-1.34792 -0.34254,-0.17546 -0.67117,-0.37597 -1.00815,-0.56257 -9.91723,-5.44458 -17.57586,-14.49569 -21.15731,-25.409933 l -0.1476,0 c -1.09727,-3.375361 -1.7963,-6.931747 -2.06087,-10.613461 -0.0779,-1.097273 -0.13089,-2.19733 -0.13089,-3.311312 0,-16.250217 8.6445,-30.450706 21.55556,-38.36555 0.17823,-0.111398 0.35369,-0.220012 0.53192,-0.32584 0.89397,-0.531927 1.80187,-1.033219 2.73483,-1.501092 0.35647,-0.181022 0.71851,-0.350903 1.08335,-0.523571 0.81599,-0.381539 1.63198,-0.754723 2.47304,-1.088918 0.58483,-0.231151 1.18082,-0.442808 1.7768,-0.648895 0.65168,-0.228366 1.30057,-0.465087 1.96339,-0.665604 0.79093,-0.236721 1.59856,-0.426098 2.4062,-0.61826 0.61269,-0.147602 1.21982,-0.306345 1.84086,-0.428884 1.26715,-0.24786 2.55381,-0.451162 3.86273,-0.59041 0.0836,-0.0083 0.16988,-0.02228 0.25344,-0.03063 1.48716,-0.147602 2.99939,-0.228366 4.52833,-0.228366 3.53968,0 6.98745,0.414958 10.2932,1.186391 l -2.09708,6.519581 10.58563,-3.7207 14.95799,-5.260782 -9.4215,-13.462476 -6.10185,-8.719696 -1.94946,6.051709 -0.0362,0.111398 c -5.18559,-1.345134 -10.6246,-2.063653 -16.23072,-2.063653 -16.41454,0 -31.38645,6.151968 -42.75743,16.264142 -0.2952,0.261786 -0.59041,0.526357 -0.88283,0.793713 -0.52357,0.481797 -1.036,0.974734 -1.54286,1.473241 -0.64055,0.632185 -1.26716,1.28108 -1.88263,1.941114 -0.23951,0.256216 -0.48737,0.509647 -0.72131,0.768648 -0.85498,0.946885 -1.67655,1.927189 -2.47304,2.921419 -0.1309,0.164312 -0.259,0.328625 -0.3899,0.492937 -8.59437,10.942091 -13.73818,24.727621 -13.73818,39.716254 0,35.558306 28.82708,64.385386 64.38261,64.385386 5.65067,0 11.13425,-0.72409 16.36718,-2.09986 l 0,0 1.94668,6.07121 6.15197,-8.78654 1.61249,-2.30594 7.77281,-11.09248 z" />
</g>
<text
   id="Tagline"
   font-size="28"
   style="font-size:20.00000191000000200px;font-style:normal;font-variant:normal;font-weight:normal;font-stretch:normal;text-align:center;text-anchor:middle;fill:#8dc63f;fill-opacity:1;font-family:Arial"
   x="177.40915"
   y="224.05434">tagline here</text> 

<text
   id="Company_Name"
   font-size="28"
   style="font-size:26.00000191px;font-style:normal;font-variant:normal;font-weight:normal;font-stretch:normal;text-align:center;text-anchor:middle;fill:#1c75bc;fill-opacity:1;font-family:Arial"
   x="177.20309"
   y="172.72032">company name</text>

</svg>